<?xml version="1.0"?>

<svg width="1115pt" height="450pt" viewBox="0 0 1115 450" version="1.1" xmlns="http://www.w3.org/2000/svg">
<g id="#00ae7bff">
<path fill="#00ae7b" opacity="1.00" d=" M 84.91 13.07 C 89.56 12.19 94.26 11.44 99.00 11.49 C 185.67 11.74 272.33 11.65 359.00 11.50 C 369.63 11.65 380.44 10.72 390.86 13.39 C 402.25 16.21 413.37 20.94 422.74 28.08 C 385.11 48.90 346.83 68.51 309.18 89.30 C 318.96 96.02 328.49 103.09 338.26 109.83 C 307.42 152.07 275.91 193.82 244.91 235.95 C 241.69 240.40 238.17 244.62 234.43 248.64 C 215.00 231.39 195.94 213.75 176.90 196.07 C 173.69 193.05 170.40 189.66 165.92 188.68 C 160.93 187.55 155.82 189.87 152.20 193.22 C 147.81 197.39 145.16 202.94 141.91 207.96 C 103.48 267.85 65.78 328.22 26.17 387.35 C 25.01 379.94 24.12 372.47 24.13 364.96 C 24.13 269.95 24.12 174.94 24.13 79.93 C 24.20 73.00 26.78 66.46 29.06 60.03 C 32.28 51.35 38.11 44.07 43.60 36.74 C 44.04 36.78 44.94 36.84 45.38 36.87 C 45.23 36.24 44.94 34.97 44.80 34.34 C 45.21 34.46 46.03 34.68 46.44 34.80 C 47.27 33.63 48.26 32.61 49.43 31.78 C 49.33 31.51 49.12 30.95 49.01 30.67 C 53.77 29.17 56.82 24.82 60.85 22.06 C 61.66 22.17 63.29 22.38 64.11 22.48 C 64.12 21.70 64.14 20.12 64.15 19.33 C 65.17 19.63 67.23 20.24 68.26 20.55 C 68.25 19.74 68.24 18.14 68.23 17.33 C 69.21 17.59 70.20 17.84 71.19 18.09 C 73.28 16.65 75.67 15.79 78.17 15.35 C 79.97 13.58 82.60 13.60 84.91 13.07 Z"></path>
</g>
<g id="#ffffffff">
<path fill="#ffffff" opacity="1.00" d=" M 422.74 28.08 C 427.66 32.57 432.48 37.21 436.63 42.45 C 427.19 82.27 418.32 122.24 408.93 162.07 C 399.68 154.87 390.43 147.66 381.29 140.32 C 335.20 200.20 289.71 260.53 243.72 320.48 C 218.46 298.61 192.96 277.03 167.58 255.32 C 127.47 309.42 87.18 363.38 47.16 417.54 C 38.93 408.48 30.13 399.18 26.17 387.35 C 65.78 328.22 103.48 267.85 141.91 207.96 C 145.16 202.94 147.81 197.39 152.20 193.22 C 155.82 189.87 160.93 187.55 165.92 188.68 C 170.40 189.66 173.69 193.05 176.90 196.07 C 195.94 213.75 215.00 231.39 234.43 248.64 C 238.17 244.62 241.69 240.40 244.91 235.95 C 275.91 193.82 307.42 152.07 338.26 109.83 C 328.49 103.09 318.96 96.02 309.18 89.30 C 346.83 68.51 385.11 48.90 422.74 28.08 Z"></path>
</g>
<g id="#0045a5ff">
<path fill="#0045a5" opacity="1.00" d=" M 436.63 42.45 C 446.37 56.25 452.75 72.97 451.94 90.05 C 451.53 180.36 452.60 270.67 452.00 360.98 C 451.85 375.25 448.36 389.65 440.86 401.88 C 427.55 424.06 402.69 439.27 376.65 439.59 C 282.46 439.98 188.27 439.61 94.09 439.61 C 76.24 439.33 58.85 430.97 47.16 417.54 C 87.18 363.38 127.47 309.42 167.58 255.32 C 192.96 277.03 218.46 298.61 243.72 320.48 C 289.71 260.53 335.20 200.20 381.29 140.32 C 390.43 147.66 399.68 154.87 408.93 162.07 C 418.32 122.24 427.19 82.27 436.63 42.45 Z"></path>
<path fill="#0045a5" opacity="1.00" d=" M 485.07 50.25 C 490.02 50.35 494.99 50.03 499.93 50.38 C 503.02 50.80 504.11 54.24 505.54 56.55 C 511.40 68.09 518.49 79.05 523.37 91.07 C 528.23 78.68 535.58 67.48 541.51 55.60 C 542.74 53.39 544.13 50.40 547.08 50.34 C 551.86 50.08 556.66 50.33 561.46 50.25 C 551.65 66.86 541.84 83.46 532.02 100.05 C 530.80 101.81 531.12 104.02 531.06 106.04 C 531.13 115.20 531.08 124.36 531.09 133.53 C 525.90 133.53 520.72 133.53 515.53 133.53 C 515.52 123.66 515.53 113.78 515.54 103.91 C 515.81 101.32 514.04 99.24 512.86 97.12 C 503.55 81.52 494.34 65.87 485.07 50.25 Z"></path>
<path fill="#0045a5" opacity="1.00" d=" M 585.50 50.74 C 598.06 47.89 612.07 49.71 622.59 57.46 C 641.01 70.77 644.07 99.20 631.47 117.46 C 618.81 136.13 590.70 139.56 572.35 127.61 C 553.38 115.36 549.22 87.44 560.56 68.67 C 565.93 59.56 575.26 53.13 585.50 50.74 M 588.38 63.61 C 579.96 65.78 573.57 73.08 571.55 81.41 C 569.30 90.64 569.74 100.99 574.56 109.36 C 583.36 124.59 608.81 125.05 618.27 110.29 C 622.70 103.41 623.61 94.85 622.81 86.87 C 622.09 79.64 619.10 72.29 613.25 67.72 C 606.32 62.29 596.69 61.44 588.38 63.61 Z"></path>
<path fill="#0045a5" opacity="1.00" d=" M 644.94 50.25 C 650.13 50.25 655.31 50.25 660.50 50.25 C 660.50 66.50 660.51 82.74 660.49 98.99 C 660.46 103.82 661.18 108.86 663.84 113.00 C 670.42 123.70 688.44 123.71 695.20 113.19 C 697.95 109.03 698.68 103.92 698.66 99.03 C 698.66 82.77 698.65 66.51 698.66 50.25 C 703.84 50.25 709.03 50.25 714.22 50.25 C 714.20 67.14 714.25 84.03 714.20 100.92 C 714.12 109.89 710.93 119.07 704.36 125.35 C 694.16 135.12 678.10 136.73 665.21 132.00 C 656.68 128.80 649.85 121.63 647.00 112.99 C 645.29 108.19 644.84 103.07 644.93 98.01 C 644.95 82.09 644.93 66.17 644.94 50.25 Z"></path>
<path fill="#0045a5" opacity="1.00" d=" M 724.40 50.01 C 728.96 50.52 735.18 48.18 738.14 52.90 C 752.57 71.35 767.09 89.73 781.50 108.21 C 780.82 88.82 781.36 69.40 781.19 50.00 C 785.76 50.00 790.33 50.00 794.91 50.00 C 794.90 77.84 794.90 105.68 794.91 133.52 C 790.40 133.10 784.43 135.09 781.33 130.74 C 766.82 112.29 752.33 93.81 737.84 75.33 C 738.48 94.72 737.95 114.12 738.13 133.52 C 733.55 133.54 728.98 133.53 724.41 133.53 C 724.40 105.69 724.41 77.85 724.40 50.01 Z"></path>
<path fill="#0045a5" opacity="1.00" d=" M 813.55 60.62 C 823.38 51.26 837.75 48.36 850.91 49.81 C 859.77 50.58 868.22 54.37 874.94 60.14 C 872.94 63.07 871.46 66.44 868.86 68.90 C 866.39 70.40 863.89 68.31 861.77 67.20 C 854.74 62.78 845.98 61.68 837.90 63.09 C 831.12 64.30 824.90 68.46 821.40 74.42 C 816.77 82.10 816.15 91.60 817.79 100.25 C 819.32 108.20 824.24 115.72 831.70 119.22 C 840.84 123.56 851.72 122.46 860.82 118.57 C 860.85 113.56 860.84 108.54 860.84 103.52 C 856.67 103.21 852.17 104.32 848.21 102.86 C 846.03 99.84 847.60 95.53 847.16 92.00 C 856.43 92.00 865.70 92.00 874.97 92.00 C 874.95 103.22 875.00 114.43 874.94 125.65 C 864.35 133.26 850.82 135.30 838.08 134.26 C 825.24 133.12 813.00 125.64 806.72 114.29 C 797.35 97.53 799.41 74.15 813.55 60.62 Z"></path>
<path fill="#0045a5" opacity="1.00" d=" M 495.81 181.00 C 501.02 181.00 506.23 181.00 511.44 181.00 C 511.44 208.83 511.44 236.67 511.44 264.50 C 506.23 264.50 501.02 264.50 495.81 264.50 C 495.81 236.67 495.81 208.83 495.81 181.00 Z"></path>
<path fill="#0045a5" opacity="1.00" d=" M 524.40 181.01 C 528.12 181.13 531.94 180.56 535.58 181.43 C 537.16 182.47 538.25 184.08 539.44 185.53 C 553.41 203.46 567.54 221.27 581.50 239.21 C 580.82 219.82 581.36 200.40 581.19 181.00 C 585.76 181.00 590.33 181.00 594.91 181.00 C 594.90 208.84 594.91 236.68 594.91 264.52 C 590.36 264.11 584.34 266.10 581.26 261.66 C 566.78 243.22 552.30 224.78 537.84 206.33 C 538.47 225.72 537.96 245.13 538.13 264.53 C 533.55 264.53 528.98 264.53 524.41 264.53 C 524.40 236.69 524.41 208.85 524.40 181.01 Z"></path>
<path fill="#0045a5" opacity="1.00" d=" M 597.72 181.26 C 602.38 181.36 607.06 180.99 611.72 181.43 C 614.06 181.74 615.23 184.06 615.99 186.04 C 620.77 198.55 625.61 211.05 630.41 223.55 C 633.38 231.40 636.77 239.13 638.66 247.34 C 640.25 239.05 643.72 231.33 646.67 223.47 C 651.45 210.99 656.26 198.53 661.02 186.04 C 661.76 184.04 663.01 181.76 665.36 181.43 C 669.96 180.99 674.61 181.36 679.24 181.26 C 668.00 209.02 656.74 236.77 645.51 264.53 C 640.81 264.53 636.12 264.53 631.44 264.53 C 620.20 236.77 608.95 209.02 597.72 181.26 Z"></path>
<path fill="#0045a5" opacity="1.00" d=" M 682.40 181.00 C 699.98 180.99 717.55 181.00 735.13 181.00 C 735.12 185.17 735.12 189.33 735.14 193.50 C 722.79 193.57 710.44 193.51 698.10 193.53 C 698.09 201.19 698.09 208.84 698.09 216.50 C 707.81 216.50 717.53 216.49 727.25 216.50 C 727.25 220.51 727.25 224.52 727.25 228.53 C 717.53 228.54 707.81 228.53 698.10 228.53 C 698.09 236.35 698.09 244.18 698.09 252.00 C 710.44 252.00 722.78 252.00 735.13 252.00 C 735.12 256.17 735.12 260.35 735.13 264.52 C 717.55 264.54 699.98 264.53 682.41 264.53 C 682.40 236.69 682.41 208.85 682.40 181.00 Z"></path>
<path fill="#0045a5" opacity="1.00" d=" M 745.54 189.44 C 749.25 185.18 754.48 182.38 759.98 181.20 C 770.96 179.06 783.05 181.62 791.57 189.07 C 790.11 191.81 788.86 194.67 787.16 197.27 C 786.27 198.90 784.03 199.19 782.52 198.30 C 778.79 196.43 775.27 193.89 771.04 193.30 C 766.35 192.62 760.97 192.99 757.33 196.35 C 753.30 200.10 753.47 207.66 758.50 210.49 C 768.23 216.46 781.56 216.34 789.10 225.84 C 797.47 237.58 791.99 256.13 779.05 262.19 C 765.19 268.86 747.61 265.16 736.51 254.84 C 738.21 252.09 739.64 249.14 741.71 246.64 C 742.99 245.11 745.34 245.02 746.93 246.12 C 751.05 248.62 755.03 251.73 759.92 252.57 C 764.28 253.29 769.07 253.24 773.03 251.04 C 778.15 248.26 779.88 240.90 777.06 235.96 C 773.65 231.29 767.60 230.11 762.40 228.50 C 755.44 226.37 747.72 223.94 743.45 217.57 C 737.98 209.12 738.84 196.99 745.54 189.44 Z"></path>
<path fill="#0045a5" opacity="1.00" d=" M 797.88 181.50 C 819.85 181.49 841.83 181.50 863.81 181.50 C 863.81 185.67 863.81 189.85 863.81 194.03 C 855.43 194.03 847.06 194.03 838.69 194.03 C 838.68 217.53 838.69 241.03 838.68 264.53 C 833.49 264.53 828.31 264.53 823.12 264.53 C 823.12 241.03 823.12 217.53 823.12 194.03 C 814.70 194.03 806.29 194.03 797.88 194.03 C 797.87 189.85 797.87 185.68 797.88 181.50 Z"></path>
<path fill="#0045a5" opacity="1.00" d=" M 900.52 181.74 C 912.83 178.95 926.53 180.64 936.98 188.03 C 955.31 200.69 958.98 228.16 947.66 246.63 C 941.80 256.41 931.34 263.04 920.14 264.83 C 910.43 266.39 900.10 265.38 891.27 260.88 C 881.79 256.22 874.64 247.43 871.51 237.39 C 866.49 221.44 870.06 202.19 882.87 190.83 C 887.85 186.37 894.02 183.29 900.52 181.74 M 903.41 194.61 C 894.96 196.77 888.56 204.08 886.54 212.43 C 884.30 221.67 884.74 232.04 889.59 240.41 C 898.41 255.60 923.84 256.03 933.28 241.27 C 937.71 234.39 938.61 225.83 937.81 217.85 C 937.08 210.63 934.09 203.29 928.25 198.73 C 921.33 193.30 911.72 192.44 903.41 194.61 Z"></path>
<path fill="#0045a5" opacity="1.00" d=" M 1036.88 185.91 C 1049.38 177.14 1067.72 179.31 1079.06 189.09 C 1077.23 192.17 1076.18 195.90 1073.56 198.39 C 1069.75 199.77 1066.72 195.82 1063.29 194.75 C 1058.18 192.52 1051.92 192.23 1046.90 194.84 C 1041.72 197.40 1040.07 205.55 1044.67 209.42 C 1048.79 212.96 1054.28 214.08 1059.28 215.85 C 1066.78 218.28 1075.20 221.57 1078.68 229.27 C 1083.73 241.22 1078.29 256.82 1066.31 262.31 C 1052.47 268.80 1035.04 265.12 1024.02 254.82 C 1026.48 251.62 1027.52 246.18 1032.01 245.35 C 1035.87 246.10 1038.66 249.38 1042.28 250.84 C 1047.59 253.39 1054.08 253.80 1059.56 251.54 C 1066.84 248.64 1068.46 236.68 1061.21 232.81 C 1052.42 227.79 1041.11 227.83 1033.49 220.58 C 1023.93 211.18 1025.95 193.46 1036.88 185.91 Z"></path>
<path fill="#0045a5" opacity="1.00" d=" M 960.94 181.50 C 970.60 181.55 980.27 181.39 989.93 181.57 C 998.78 181.96 1008.63 184.19 1014.36 191.52 C 1021.31 201.06 1019.62 215.92 1010.53 223.53 C 1007.63 226.10 1004.07 227.72 1000.48 229.07 C 1004.52 231.98 1006.94 236.39 1009.72 240.39 C 1015.20 248.44 1020.71 256.47 1026.18 264.53 C 1021.17 264.45 1016.14 264.72 1011.14 264.41 C 1008.64 264.35 1006.89 262.36 1005.65 260.42 C 1000.38 252.35 995.04 244.32 989.78 236.25 C 988.58 234.60 987.41 232.41 985.15 232.22 C 982.27 231.86 979.38 232.04 976.50 232.03 C 976.50 242.86 976.50 253.70 976.50 264.53 C 971.31 264.53 966.12 264.53 960.94 264.53 C 960.94 236.85 960.94 209.18 960.94 181.50 M 976.50 193.54 C 976.50 202.72 976.50 211.90 976.50 221.09 C 983.24 220.85 990.53 222.12 996.72 218.73 C 1005.10 214.48 1005.97 200.18 997.37 195.72 C 990.92 192.47 983.44 193.81 976.50 193.54 Z"></path>
<path fill="#0045a5" opacity="1.00" d=" M 491.55 328.35 C 494.12 320.14 501.62 314.20 509.85 312.34 C 521.00 309.95 533.40 312.46 542.06 320.09 C 540.41 323.08 539.17 326.34 537.06 329.03 C 534.59 331.01 531.79 328.56 529.56 327.43 C 523.64 323.71 515.53 322.54 509.32 326.18 C 504.80 328.88 503.34 336.05 507.15 339.92 C 510.44 343.19 515.08 344.44 519.36 345.90 C 527.55 348.57 537.13 351.33 541.36 359.61 C 546.96 371.59 541.51 387.68 529.37 393.29 C 515.53 399.81 498.05 396.13 487.02 385.82 C 489.61 382.53 490.78 376.09 495.94 376.45 C 500.33 378.44 503.96 381.95 508.73 383.17 C 513.68 384.41 519.34 384.49 523.87 381.84 C 528.35 379.20 529.82 373.16 528.31 368.41 C 526.67 364.47 522.44 362.57 518.66 361.25 C 511.24 358.79 503.07 357.30 496.99 352.04 C 490.44 346.27 489.07 336.38 491.55 328.35 Z"></path>
<path fill="#0045a5" opacity="1.00" d=" M 576.47 312.63 C 588.54 310.03 601.89 311.68 612.17 318.81 C 630.66 331.30 634.52 358.79 623.33 377.35 C 617.59 387.12 607.29 393.81 596.20 395.73 C 585.00 397.69 572.88 396.10 563.22 389.85 C 543.84 377.66 539.59 349.23 551.26 330.34 C 556.74 321.26 566.18 314.91 576.47 312.63 M 578.47 325.73 C 570.09 328.05 563.88 335.44 561.95 343.77 C 559.82 353.01 560.29 363.37 565.24 371.67 C 574.27 386.71 599.71 386.93 608.95 372.00 C 613.19 365.22 614.08 356.90 613.34 349.09 C 612.65 341.90 609.76 334.57 604.02 329.94 C 596.97 324.23 586.99 323.36 578.47 325.73 Z"></path>
<path fill="#0045a5" opacity="1.00" d=" M 644.20 329.19 C 657.76 308.72 690.41 305.28 708.17 322.09 C 706.00 324.95 704.23 328.16 701.62 330.66 C 699.32 332.03 697.09 329.98 695.19 328.89 C 687.49 323.70 677.15 323.24 668.68 326.71 C 660.58 330.02 655.20 338.01 653.66 346.44 C 652.13 355.14 652.99 364.63 657.74 372.25 C 661.61 378.65 668.68 382.91 676.14 383.38 C 682.58 383.79 689.59 382.98 694.75 378.74 C 696.37 377.67 697.81 375.83 699.96 376.02 C 703.10 377.98 705.16 381.22 707.73 383.83 C 702.74 389.56 696.03 393.81 688.55 395.37 C 677.43 397.65 665.14 396.80 655.36 390.64 C 646.71 385.41 640.82 376.37 638.52 366.63 C 635.56 354.08 636.85 340.04 644.20 329.19 Z"></path>
<path fill="#0045a5" opacity="1.00" d=" M 721.81 312.00 C 727.02 312.00 732.23 312.00 737.44 312.00 C 737.44 339.84 737.44 367.69 737.44 395.53 C 732.23 395.53 727.02 395.53 721.81 395.53 C 721.81 367.68 721.81 339.84 721.81 312.00 Z"></path>
<path fill="#0045a5" opacity="1.00" d=" M 750.40 312.00 C 767.98 312.00 785.55 312.00 803.13 312.00 C 803.12 316.18 803.12 320.35 803.13 324.53 C 790.78 324.53 778.44 324.53 766.10 324.53 C 766.09 332.19 766.09 339.84 766.09 347.50 C 775.81 347.50 785.53 347.49 795.25 347.50 C 795.25 351.51 795.25 355.52 795.25 359.53 C 785.53 359.53 775.81 359.53 766.09 359.53 C 766.09 367.35 766.09 375.18 766.09 383.00 C 778.44 383.00 790.78 383.00 803.13 383.00 C 803.12 387.18 803.12 391.35 803.12 395.53 C 785.55 395.53 767.98 395.53 750.41 395.53 C 750.40 367.69 750.41 339.85 750.40 312.00 Z"></path>
<path fill="#0045a5" opacity="1.00" d=" M 876.57 312.25 C 881.37 312.32 886.17 312.09 890.97 312.33 C 894.44 312.46 895.65 316.30 897.18 318.80 C 903.00 330.26 910.02 341.13 914.87 353.06 C 919.47 341.23 926.49 330.54 932.15 319.21 C 933.69 316.68 934.79 312.93 938.14 312.39 C 943.07 312.03 948.02 312.35 952.96 312.25 C 942.95 329.47 932.44 346.43 922.73 363.79 C 922.38 374.36 922.70 384.95 922.59 395.53 C 917.40 395.53 912.22 395.53 907.03 395.53 C 907.03 386.37 907.00 377.20 907.06 368.04 C 906.98 366.00 907.28 363.78 906.05 362.01 C 896.21 345.43 886.40 328.84 876.57 312.25 Z"></path>
<path fill="#0045a5" opacity="1.00" d=" M 809.38 325.03 C 809.37 320.85 809.37 316.67 809.38 312.50 C 831.36 312.50 853.33 312.49 875.31 312.50 C 875.31 316.67 875.31 320.85 875.31 325.03 C 866.94 325.03 858.56 325.03 850.19 325.03 C 850.19 348.53 850.19 372.03 850.19 395.53 C 845.00 395.53 839.81 395.53 834.62 395.53 C 834.63 372.03 834.62 348.53 834.63 325.03 C 826.21 325.03 817.79 325.03 809.38 325.03 Z"></path>
</g>
</svg>